<svg xmlns="http://www.w3.org/2000/svg" fill="none" viewBox="0 0 22 21"><path fill="#fff" fill-rule="evenodd" d="M21.76.35a1 1 0 0 1-.11 1.41l-7 6a1 1 0 0 1-1.29.008L8.01 3.31 1.65 8.76a1 1 0 1 1-1.3-1.518l7-6a1 1 0 0 1 1.29-.01l5.35 4.46L20.35.24a1 1 0 0 1 1.41.108ZM14 14a1 1 0 0 1 1 1v5a1 1 0 1 1-2 0v-5a1 1 0 0 1 1-1m7-4a1 1 0 0 0-2 0v10a1 1 0 1 0 2 0zM8 9a1 1 0 0 1 1 1v10a1 1 0 1 1-2 0V10a1 1 0 0 1 1-1m-5 6a1 1 0 1 0-2 0v5a1 1 0 1 0 2 0z" clip-rule="evenodd"/><path fill="url(#testing-icon_svg__a)" fill-rule="evenodd" d="M21.76.35a1 1 0 0 1-.11 1.41l-7 6a1 1 0 0 1-1.29.008L8.01 3.31 1.65 8.76a1 1 0 1 1-1.3-1.518l7-6a1 1 0 0 1 1.29-.01l5.35 4.46L20.35.24a1 1 0 0 1 1.41.108ZM14 14a1 1 0 0 1 1 1v5a1 1 0 1 1-2 0v-5a1 1 0 0 1 1-1m7-4a1 1 0 0 0-2 0v10a1 1 0 1 0 2 0zM8 9a1 1 0 0 1 1 1v10a1 1 0 1 1-2 0V10a1 1 0 0 1 1-1m-5 6a1 1 0 1 0-2 0v5a1 1 0 1 0 2 0z" clip-rule="evenodd"/><defs><linearGradient id="testing-icon_svg__a" x1="11" x2="11" y1="0" y2="21" gradientUnits="userSpaceOnUse"><stop stop-color="#47D2C6"/><stop offset="1" stop-color="#238F86"/></linearGradient></defs></svg>